name D:\school\WTK\thesis\model\3dpredictsim\Results\batch_windlass\Pog_s1_tmt_aCst_d05_k800_WL10_ig24_pas.mot
datacolumns 128
datarows 4
range 0.52767255 0.55933290
endheader
time	pelvis_tilt	pelvis_list	pelvis_rotation	pelvis_tx	pelvis_ty	pelvis_tz	hip_flexion_l	hip_adduction_l	hip_rotation_l	hip_flexion_r	hip_adduction_r	hip_rotation_r	knee_angle_l	knee_angle_r	ankle_angle_l	ankle_angle_r	subtalar_angle_l	subtalar_angle_r	tmt_angle_l	tmt_angle_r	mtp_angle_l	mtp_angle_r	lumbar_extension	lumbar_bending	lumbar_rotation	arm_flex_l	arm_add_l	arm_rot_l	arm_flex_r	arm_add_r	arm_rot_r	elbow_flex_l	elbow_flex_r	pro_sup_l	pro_sup_r	glut_med1_l/activation	glut_med2_l/activation	glut_med3_l/activation	glut_min1_l/activation	glut_min2_l/activation	glut_min3_l/activation	semimem_l/activation	semiten_l/activation	bifemlh_l/activation	bifemsh_l/activation	sar_l/activation	add_long_l/activation	add_brev_l/activation	add_mag1_l/activation	add_mag2_l/activation	add_mag3_l/activation	tfl_l/activation	pect_l/activation	grac_l/activation	glut_max1_l/activation	glut_max2_l/activation	glut_max3_l/activation	iliacus_l/activation	psoas_l/activation	quad_fem_l/activation	gem_l/activation	peri_l/activation	rect_fem_l/activation	vas_med_l/activation	vas_int_l/activation	vas_lat_l/activation	med_gas_l/activation	lat_gas_l/activation	soleus_l/activation	tib_post_l/activation	flex_dig_l/activation	flex_hal_l/activation	tib_ant_l/activation	per_brev_l/activation	per_long_l/activation	per_tert_l/activation	ext_dig_l/activation	ext_hal_l/activation	ercspn_l/activation	intobl_l/activation	extobl_l/activation	glut_med1_r/activation	glut_med2_r/activation	glut_med3_r/activation	glut_min1_r/activation	glut_min2_r/activation	glut_min3_r/activation	semimem_r/activation	semiten_r/activation	bifemlh_r/activation	bifemsh_r/activation	sar_r/activation	add_long_r/activation	add_brev_r/activation	add_mag1_r/activation	add_mag2_r/activation	add_mag3_r/activation	tfl_r/activation	pect_r/activation	grac_r/activation	glut_max1_r/activation	glut_max2_r/activation	glut_max3_r/activation	iliacus_r/activation	psoas_r/activation	quad_fem_r/activation	gem_r/activation	peri_r/activation	rect_fem_r/activation	vas_med_r/activation	vas_int_r/activation	vas_lat_r/activation	med_gas_r/activation	lat_gas_r/activation	soleus_r/activation	tib_post_r/activation	flex_dig_r/activation	flex_hal_r/activation	tib_ant_r/activation	per_brev_r/activation	per_long_r/activation	per_tert_r/activation	ext_dig_r/activation	ext_hal_r/activation	ercspn_r/activation	intobl_r/activation	extobl_r/activation	
          0.52767255	         -2.91156359	          1.71741994	         -6.64718148	          0.65959069	          0.85359979	          0.00225052	         31.64706444	          3.20355530	         -1.62165232	        -18.83427884	         -2.13922970	          8.45747283	        -20.92407086	        -10.43172862	         -4.13427925	         -2.91325287	         -6.69989266	         11.28995022	          0.04602761	         -1.72531008	          0.08371122	         27.73531187	         -0.55580135	          0.14891320	          1.79060212	        -10.74021920	        -13.72126425	          7.14294463	          4.83931622	        -13.49309437	         15.38509579	         17.88817857	         35.32936041	         86.51662706	         86.51662706	          0.12162391	          0.05000053	          0.05000009	          0.05879468	          0.05879443	          0.05000142	          0.05000036	          0.05000028	          0.05879447	          0.05000008	          0.05000193	          0.09559580	          0.21407085	          0.14559426	          0.13952669	          0.15960976	          0.05000016	          0.07800127	          0.05001350	          0.05000020	          0.20392715	          0.17706807	          0.05879512	          0.05748709	          0.19147880	          0.05000101	          0.09138528	          0.05808973	          0.20121399	          0.19711524	          0.16721324	          0.05879459	          0.05879449	          0.05182359	          0.05000001	          0.05000014	          0.05000019	          0.53611796	          0.23309201	          0.13217738	          0.47204236	          0.71159667	          0.31867490	          0.05062255	          0.10706039	          0.11053755	          0.31510167	          0.07480719	          0.05000002	          0.30944760	          0.17724656	          0.08129580	          0.05000080	          0.05000010	          0.05000009	          0.06796673	          0.08754100	          0.13348533	          0.10071227	          0.05000070	          0.05000073	          0.05000024	          0.26692224	          0.11844134	          0.05000076	          0.05000058	          0.05000034	          0.05000026	          0.29950256	          0.49970817	          0.05000006	          0.05000023	          0.05000014	          0.17094173	          0.13746593	          0.07822759	          0.06872913	          0.27549461	          0.35268873	          0.23288943	          0.19008260	          0.19190760	          0.26487166	          0.05000001	          0.07239841	          0.15479839	          0.05000014	          0.05000004	          0.05000010	          0.05000003	          0.05000002	          0.05000005	
          0.53822600	         -2.89540324	          1.85850795	         -6.92354328	          0.67596366	          0.85230582	          0.00206289	         31.02645642	          3.63864701	         -1.27256453	        -18.47166479	         -2.48734114	          8.20783924	        -21.26406231	        -12.65466881	         -4.41768105	         -3.87916355	         -7.63023774	         12.34419912	          0.01708096	         -2.15748244	          0.22696440	         28.47824921	         -0.33128566	         -0.12664437	          1.85067994	        -11.77223457	        -13.71607514	          7.02323174	          4.57658126	        -13.52893771	         15.72262370	         17.79520156	         36.25454355	         86.51662706	         86.51662706	          0.26174082	          0.05000052	          0.19440314	          0.05000020	          0.05000017	          0.05000024	          0.05000004	          0.05000012	          0.05000006	          0.05000008	          0.05000043	          0.08129659	          0.18205011	          0.28920703	          0.25753523	          0.17128069	          0.05000060	          0.06633504	          0.05000126	          0.17303173	          0.21814808	          0.15058264	          0.05000066	          0.05000064	          0.30083905	          0.05011114	          0.07771584	          0.05879460	          0.30117697	          0.28836168	          0.24685223	          0.05000011	          0.05000014	          0.05000001	          0.11293654	          0.05879522	          0.05000060	          0.45592500	          0.19822592	          0.11240618	          0.40143425	          0.60515559	          0.27100728	          0.05000000	          0.09104621	          0.09400324	          0.26796852	          0.06361747	          0.05001005	          0.26316025	          0.15073388	          0.06913553	          0.05959062	          0.05000021	          0.05000035	          0.05780023	          0.07444666	          0.22292643	          0.29931372	          0.06907507	          0.05879462	          0.05997986	          0.22699589	          0.10072521	          0.05000106	          0.05002013	          0.05002421	          0.05877191	          0.25470272	          0.45001162	          0.05879439	          0.05879382	          0.05000020	          0.14537212	          0.12818061	          0.13218120	          0.13218121	          0.23428588	          0.29993323	          0.19805362	          0.16164989	          0.16320196	          0.22525197	          0.10116112	          0.06156904	          0.14525502	          0.05000010	          0.12837963	          0.05000076	          0.06580743	          0.05879454	          0.05050067	
          0.54877945	         -2.87675235	          1.99831791	         -7.16833285	          0.69245632	          0.85100512	          0.00187897	         30.19918184	          4.06633613	         -0.89243411	        -17.99302003	         -2.81167406	          7.95642889	        -21.79879306	        -15.05973072	         -4.27187208	         -4.92379162	         -8.59613507	         13.30721019	         -0.17244831	         -2.54469556	          0.20121581	         28.69672781	         -0.09762826	         -0.40584009	          1.89996009	        -12.76271221	        -13.71154599	          6.98543570	          4.26851116	        -13.56872201	         16.01532182	         17.65931980	         37.13418803	         86.51662706	         86.51662706	          0.37274444	          0.32813165	          0.45144746	          0.18040434	          0.05002846	          0.25040780	          0.07879712	          0.10959833	          0.08638036	          0.06913550	          0.05000044	          0.06913622	          0.15481897	          0.24594741	          0.21901348	          0.18048232	          0.05000014	          0.05641911	          0.10623216	          0.28484704	          0.26360251	          0.17358600	          0.05000014	          0.05000011	          0.25583949	          0.05000109	          0.19697000	          0.05000007	          0.27827696	          0.29074395	          0.24951746	          0.05000004	          0.05000011	          0.05039807	          0.14522448	          0.05000105	          0.05000227	          0.57095700	          0.16857511	          0.09559237	          0.34138751	          0.64569888	          0.40134176	          0.05026286	          0.07994400	          0.07994215	          0.23272855	          0.05410153	          0.05000001	          0.22379904	          0.12818701	          0.05879420	          0.08233319	          0.05000020	          0.05000013	          0.05000016	          0.06331107	          0.21219146	          0.30232256	          0.05874296	          0.05000092	          0.05100829	          0.23396240	          0.08565922	          0.05000026	          0.05000044	          0.05000027	          0.05000018	          0.21660408	          0.40888797	          0.05000002	          0.05000013	          0.05000004	          0.12362723	          0.10900727	          0.11240944	          0.11240945	          0.19924118	          0.25506895	          0.16842857	          0.13747018	          0.13879015	          0.19155866	          0.17845057	          0.12425318	          0.13222702	          0.31029996	          0.23113533	          0.10367431	          0.09894307	          0.05000001	          0.05000004	
          0.55933290	         -2.85856074	          2.13797297	         -7.37581098	          0.70875568	          0.84983183	          0.00166780	         29.30639446	          4.50420583	         -0.51911983	        -17.35507826	         -3.11005472	          7.69933846	        -22.27861587	        -17.68551668	         -3.80277021	         -5.96530715	         -9.58401643	         14.16288026	          0.13325104	         -2.72282065	          0.24711639	         27.93719706	          0.11655101	         -0.68649131	          1.93879830	        -13.63920375	        -13.70446817	          7.05512204	          3.97163902	        -13.60464531	         16.27877246	         17.43839154	         37.91923809	         86.51662706	         86.51662706	          0.45082455	          0.49737227	          0.63693044	          0.15678725	          0.28458561	          0.37629345	          0.06701061	          0.09320466	          0.07345957	          0.05879440	          0.05000012	          0.05879480	          0.13166105	          0.20915879	          0.21737577	          0.18207818	          0.05000015	          0.05000100	          0.09034226	          0.37031649	          0.30016586	          0.19954438	          0.05000002	          0.05000003	          0.21757105	          0.05000103	          0.18276642	          0.05000002	          0.38903301	          0.39201086	          0.33469049	          0.05000000	          0.05000001	          0.05000000	          0.20025552	          0.05000141	          0.05000026	          0.57966379	          0.14335950	          0.08129358	          0.29032256	          0.56240665	          0.40995928	          0.07548644	          0.06798591	          0.06798434	          0.19791683	          0.05000005	          0.05000003	          0.19032304	          0.10901272	          0.05000014	          0.11114755	          0.05000027	          0.05000039	          0.05000009	          0.05384110	          0.23769831	          0.30498888	          0.05000032	          0.05001983	          0.10997314	          0.25412221	          0.07284640	          0.05000039	          0.05000091	          0.05000068	          0.05000060	          0.18420425	          0.35055659	          0.05000006	          0.05000030	          0.05000012	          0.10513497	          0.09559512	          0.09559545	          0.09559541	          0.16943850	          0.21691551	          0.14323487	          0.14226850	          0.11803014	          0.17614967	          0.16949086	          0.10566731	          0.11244840	          0.26388505	          0.19656195	          0.08816670	          0.12193660	          0.05000001	          0.05000003	
